<?xml version="1.0" standalone="no"?>
<!DOCTYPE svg PUBLIC "-//W3C//DTD SVG 20010904//EN"
 "http://www.w3.org/TR/2001/REC-SVG-20010904/DTD/svg10.dtd">
<svg version="1.0" xmlns="http://www.w3.org/2000/svg"
 width="600.000000pt" height="600.000000pt" viewBox="0 0 600.000000 600.000000"
 preserveAspectRatio="xMidYMid meet">
<g transform="translate(0.000000,600.000000) scale(0.100000,-0.100000)"
fill="#000000" stroke="none">
<path d="M2925 5481 c-22 -10 -128 -95 -235 -187 -252 -217 -1368 -1186 -1526
-1323 -66 -59 -191 -167 -277 -241 -175 -151 -196 -180 -177 -250 11 -43 59
-89 93 -91 71 -4 80 0 172 79 l70 60 5 -1141 5 -1142 23 -80 c67 -237 222
-433 426 -537 116 -58 205 -78 354 -78 l124 0 38 38 c52 52 60 96 29 159 -34
66 -70 83 -184 83 -50 0 -117 7 -148 15 -176 46 -309 174 -374 360 l-28 80 -5
1210 c-3 666 -9 1219 -12 1230 -6 17 12 36 104 115 62 52 356 307 653 565 841
732 895 779 920 794 22 14 28 11 117 -64 253 -216 1030 -881 1316 -1128 282
-244 321 -280 312 -297 -7 -12 -10 -434 -10 -1230 0 -1330 -4 -1252 60 -1285
37 -19 93 -19 130 0 63 33 60 -37 60 1201 0 1101 0 1126 19 1113 10 -8 46 -38
80 -66 57 -48 66 -53 112 -53 65 0 117 44 126 106 7 57 -15 97 -90 163 -34 29
-203 175 -374 323 l-313 270 0 353 0 353 -26 31 -26 31 -193 0 c-190 0 -194 0
-222 -24 -28 -24 -28 -24 -31 -170 l-3 -145 -197 168 c-390 332 -619 527 -674
573 -91 79 -148 94 -223 59z"/>
<path d="M2403 4095 c-67 -29 -94 -126 -53 -193 26 -42 73 -62 145 -62 l55 0
-2 -1042 -3 -1043 -23 -56 c-63 -157 -195 -243 -372 -242 -173 2 -295 94 -336
253 -19 75 -37 104 -81 125 -76 37 -160 6 -195 -72 -18 -42 -19 -52 -8 -102 6
-31 30 -94 52 -141 32 -67 57 -101 117 -160 86 -86 160 -129 276 -161 68 -18
97 -21 214 -17 155 6 226 24 330 85 98 57 170 133 246 257 8 14 19 4 67 -58
100 -130 274 -263 426 -327 338 -140 729 -103 1010 97 90 65 115 132 72 201
-27 44 -64 66 -114 67 -35 1 -54 -7 -102 -40 -146 -102 -262 -138 -444 -137
-144 1 -239 22 -354 78 -163 79 -285 202 -366 370 -72 150 -85 209 -85 405 0
143 3 176 23 244 78 269 286 485 544 564 111 35 225 46 335 33 124 -15 198
-40 309 -107 117 -70 157 -73 215 -15 34 34 39 44 39 86 0 63 -20 94 -94 143
-288 192 -681 214 -1011 58 -125 -59 -194 -106 -287 -195 l-78 -74 0 462 0
461 58 0 c70 0 119 24 144 71 35 66 12 146 -53 181 -30 16 -61 18 -309 18
-213 -1 -282 -4 -307 -15z"/>
<path d="M3590 2611 c-5 -11 -10 -78 -10 -150 l0 -131 -130 0 c-174 0 -173 1
-168 -157 4 -147 -1 -143 170 -143 l128 0 0 -133 c0 -178 -5 -172 143 -172
159 0 157 -3 157 172 l0 133 128 0 c166 0 162 -4 162 152 0 152 4 148 -163
148 l-127 0 0 133 c0 173 5 167 -158 167 -110 0 -122 -2 -132 -19z"/>
</g>
</svg>
